<?xml version="1.0" encoding="utf-8"?><svg xmlns="http://www.w3.org/2000/svg" xmlns:xlink="http://www.w3.org/1999/xlink"><symbol fill="inherit" viewBox="0 0 23 12" id="arrow" xmlns="http://www.w3.org/2000/svg"><path opacity=".8" d="M22.53 6.53a.75.75 0 0 0 0-1.06L17.757.697a.75.75 0 0 0-1.06 1.06L20.939 6l-4.242 4.243a.75.75 0 0 0 1.06 1.06L22.53 6.53ZM0 6.75h22v-1.5H0v1.5Z"/></symbol><symbol fill="none" viewBox="0 0 68 57" id="cardlock" xmlns="http://www.w3.org/2000/svg"><path d="M28.498 37.13c0-2.317.054-2.913-.206-3.988-.775-3.192-3.657-5.569-7.085-5.569h-2.121c-4.029 0-7.29 3.278-7.29 7.29v2.267a3.469 3.469 0 0 0-3.182 3.454v12.95a3.47 3.47 0 0 0 3.466 3.467h16.133a3.47 3.47 0 0 0 3.466-3.466V40.584a3.47 3.47 0 0 0-3.181-3.454Zm-12.726-2.266a3.318 3.318 0 0 1 3.314-3.314c2.031 0 3.802-.287 4.951 1.59.61.998.484 1.675.484 3.977h-8.749v-2.253ZM58.949 0H8.92C4.001 0 0 4.002 0 8.921v1.684h67.87V8.92C67.87 4.001 63.868 0 58.949 0Z" fill="#588535"/><path d="M0 37.48a8.924 8.924 0 0 0 4.64 7.823c0-4.566-.604-8.166 3.189-10.818.483-14.71 24.16-14.587 24.64 0 3.946 2.759 3.19 6.78 3.19 11.917h23.29c4.919 0 8.92-4.002 8.92-8.922V14.588H0V37.48Zm38.31-13.523a4.869 4.869 0 0 1 4.862-4.862h11.22a4.869 4.869 0 0 1 4.862 4.862v2.736a4.869 4.869 0 0 1-4.863 4.862h-11.22a4.869 4.869 0 0 1-4.862-4.862v-2.736Z" fill="#588535"/><path d="M43.168 27.568c11.316 0 12.105.36 12.105-.885 0-2.278.292-3.622-.885-3.622-11.317 0-12.106-.36-12.106.886 0 2.277-.292 3.621.886 3.621Z" fill="#588535"/></symbol><symbol fill="inherit" viewBox="0 0 47 44" id="crew" xmlns="http://www.w3.org/2000/svg"><path d="M9.401 12.534c1.73 0 3.207-.612 4.43-1.836 1.225-1.224 1.837-2.701 1.837-4.431s-.612-3.207-1.836-4.431C12.608.612 11.132 0 9.402 0 7.671 0 6.193.612 4.97 1.836 3.747 3.06 3.135 4.537 3.135 6.266c0 1.731.612 3.208 1.835 4.432 1.224 1.223 2.701 1.836 4.431 1.836ZM16.85 22.312c1.837 1.835 4.052 2.753 6.647 2.753 2.595 0 4.81-.918 6.646-2.753 1.836-1.837 2.754-4.052 2.754-6.647 0-2.595-.918-4.81-2.754-6.646-1.836-1.836-4.05-2.754-6.646-2.754-2.595 0-4.81.918-6.646 2.754-1.836 1.836-2.754 4.051-2.754 6.646 0 2.596.918 4.81 2.754 6.647ZM37.6 12.534c1.73 0 3.207-.612 4.43-1.836 1.225-1.224 1.836-2.701 1.836-4.431s-.611-3.207-1.835-4.431C40.807.612 39.33 0 37.6 0c-1.731 0-3.208.612-4.432 1.836-1.223 1.224-1.835 2.701-1.835 4.43 0 1.731.612 3.208 1.835 4.432 1.224 1.223 2.7 1.836 4.431 1.836ZM43.964 12.534c-.097 0-.453.172-1.065.514-.611.343-1.407.69-2.386 1.04-.979.352-1.95.527-2.913.527a9.83 9.83 0 0 1-3.256-.563c.081.604.123 1.142.123 1.616 0 2.268-.662 4.357-1.984 6.266 2.644.082 4.806 1.126 6.488 3.134h3.28c1.338 0 2.464-.331 3.378-.992.913-.66 1.37-1.628 1.37-2.9 0-5.762-1.01-8.642-3.035-8.642Z"/><path d="M40.305 32.325a20.726 20.726 0 0 0-.65-2.656 12.614 12.614 0 0 0-1.052-2.387 8.634 8.634 0 0 0-1.518-1.983c-.571-.546-1.27-.982-2.093-1.31-.824-.326-1.734-.489-2.73-.489-.163 0-.513.176-1.052.527-.539.35-1.134.743-1.787 1.174-.653.432-1.525.824-2.62 1.175a10.762 10.762 0 0 1-3.304.527c-1.11 0-2.211-.176-3.305-.527-1.094-.35-1.966-.743-2.62-1.175-.652-.431-1.248-.824-1.786-1.174-.539-.351-.89-.527-1.053-.527-.995 0-1.905.163-2.73.49-.824.327-1.521.763-2.092 1.31a8.613 8.613 0 0 0-1.518 1.982c-.44.776-.792 1.57-1.053 2.387a20.789 20.789 0 0 0-.648 2.656 24.887 24.887 0 0 0-.343 2.668 36.613 36.613 0 0 0-.086 2.534c0 1.958.596 3.505 1.787 4.639 1.192 1.134 2.775 1.701 4.749 1.701h21.395c1.975 0 3.558-.567 4.75-1.701 1.19-1.134 1.786-2.68 1.786-4.639 0-.865-.028-1.71-.085-2.534a25.32 25.32 0 0 0-.342-2.668ZM14.516 21.934c-1.322-1.91-1.983-3.998-1.982-6.267 0-.473.04-1.011.122-1.615a9.84 9.84 0 0 1-3.256.563 8.596 8.596 0 0 1-2.913-.526c-.979-.351-1.775-.698-2.386-1.04-.612-.343-.968-.515-1.065-.515-2.024 0-3.036 2.88-3.036 8.641 0 1.273.457 2.24 1.37 2.901.915.66 2.04.991 3.379.991h3.28c1.681-2.007 3.843-3.051 6.487-3.133Z"/></symbol><symbol fill="inherit" viewBox="0 0 85 50" id="deliver" xmlns="http://www.w3.org/2000/svg"><path fill-rule="evenodd" clip-rule="evenodd" d="M60.231.498c7.325 1.7 10.127 5.983 13.64 11.878h-13.64V.498ZM17.422 12.87c1.434 0 2.475.693 2.475 2.31a2.475 2.475 0 0 1-2.468 2.476H2.475a2.475 2.475 0 0 0 0 4.95h22.278a2.475 2.475 0 1 1 .01 4.95H2.474a2.475 2.475 0 1 0 0 4.951h5.446v7.426a2.475 2.475 0 0 0 2.475 2.475h4.976A9.492 9.492 0 0 0 24.67 50a9.492 9.492 0 0 0 9.298-7.59h25.133A9.492 9.492 0 0 0 68.399 50a9.492 9.492 0 0 0 9.299-7.59h4.315a2.475 2.475 0 0 0 2.475-2.476V25.083c0-7.263-7.66-7.745-7.667-7.756H57.756a2.475 2.475 0 0 1-2.475-2.476V0H10.396a2.475 2.475 0 0 0-2.475 2.475v5.446H4.95a2.475 2.475 0 1 0 0 4.95h12.471Zm54.186 24.432a4.539 4.539 0 0 1 0 6.418c-2.85 2.85-7.747.823-7.747-3.21 0-4.03 4.897-6.059 7.747-3.208Zm-43.73 0a4.539 4.539 0 0 1 0 6.418c-2.85 2.85-7.746.823-7.746-3.21 0-4.03 4.896-6.059 7.747-3.208Z"/></symbol><symbol fill="none" viewBox="0 0 37 35" id="drops" xmlns="http://www.w3.org/2000/svg"><path d="M12.171 9.714c0-1.792-.92-3.875-2.733-6.192A25.183 25.183 0 0 0 6.81.655L6.086 0l-.723.655a25.184 25.184 0 0 0-2.63 2.867C.92 5.839 0 7.922 0 9.714A6.093 6.093 0 0 0 6.086 15.8a6.093 6.093 0 0 0 6.085-6.086ZM34.053 3.522a25.181 25.181 0 0 0-2.63-2.867L30.702 0l-.724.655a25.177 25.177 0 0 0-2.629 2.867c-1.813 2.317-2.733 4.4-2.733 6.192A6.093 6.093 0 0 0 30.7 15.8a6.093 6.093 0 0 0 6.085-6.086c0-1.792-.92-3.875-2.733-6.192ZM19.186 11.746l-.724-.655-.723.655c-.328.297-8.046 7.354-8.046 13.486 0 4.835 3.934 8.77 8.77 8.77 4.835 0 8.769-3.935 8.769-8.77 0-6.131-7.718-13.189-8.046-13.486Zm3.76 13.283a4.883 4.883 0 0 1-4.878 4.878v-2.155a2.725 2.725 0 0 0 2.722-2.723h2.155Z" fill="#588535"/></symbol><symbol fill="none" viewBox="0 0 11 19" id="facebook" xmlns="http://www.w3.org/2000/svg"><path d="m9.809 10.375.492-3.234H7.17V5.03c0-.914.423-1.758 1.829-1.758h1.441V.496S9.141.25 7.911.25c-2.567 0-4.255 1.582-4.255 4.395V7.14H.773v3.234h2.883v7.875h3.516v-7.875h2.637Z" fill="#22271C"/></symbol><symbol fill="none" viewBox="0 0 19 19" id="google" xmlns="http://www.w3.org/2000/svg"><path d="M18.847 7.741c.085 0 .153.069.153.153V9.5c0 .601-.055 1.188-.163 1.758-.828 4.428-4.728 7.774-9.404 7.742A9.477 9.477 0 0 1 0 9.479a9.5 9.5 0 0 1 16.106-6.806c.062.06.064.158.003.218l-2.272 2.272a.152.152 0 0 1-.213.003A5.962 5.962 0 0 0 9.5 3.517a5.965 5.965 0 0 0-5.982 5.941 5.983 5.983 0 0 0 11.702 1.8H9.653a.153.153 0 0 1-.153-.152V7.894c0-.084.069-.153.153-.153h9.194Z" fill="#22271C"/></symbol><symbol fill="none" viewBox="0 0 17 17" id="inst" xmlns="http://www.w3.org/2000/svg"><path d="M8.875 4.207A4.044 4.044 0 0 0 4.832 8.25a4.021 4.021 0 0 0 4.043 4.043 4.044 4.044 0 0 0 4.043-4.043c0-2.215-1.828-4.043-4.043-4.043Zm0 6.68A2.633 2.633 0 0 1 6.238 8.25c0-1.441 1.16-2.602 2.637-2.602a2.596 2.596 0 0 1 2.602 2.602c0 1.477-1.16 2.637-2.602 2.637Zm5.133-6.82a.945.945 0 0 0-.95-.95.945.945 0 0 0-.949.95c0 .527.422.949.95.949.527 0 .949-.422.949-.95Zm2.672.949c-.07-1.266-.352-2.391-1.266-3.305C14.5.797 13.375.516 12.11.445c-1.3-.07-5.203-.07-6.504 0C4.34.515 3.25.797 2.301 1.711c-.914.914-1.196 2.039-1.266 3.305-.07 1.3-.07 5.203 0 6.504.07 1.265.352 2.355 1.266 3.304.949.914 2.039 1.196 3.304 1.266 1.301.07 5.204.07 6.504 0 1.266-.07 2.391-.352 3.305-1.266.914-.949 1.195-2.039 1.266-3.304.07-1.301.07-5.204 0-6.504Zm-1.688 7.875c-.246.703-.808 1.23-1.476 1.511-1.055.422-3.516.317-4.641.317-1.16 0-3.621.105-4.64-.317a2.665 2.665 0 0 1-1.512-1.511c-.422-1.02-.317-3.48-.317-4.641 0-1.125-.105-3.586.317-4.64a2.712 2.712 0 0 1 1.511-1.477c1.02-.422 3.48-.317 4.641-.317 1.125 0 3.586-.105 4.64.317.669.246 1.196.808 1.477 1.476.422 1.055.317 3.516.317 4.641 0 1.16.105 3.621-.317 4.64Z" fill="#22271C"/></symbol><symbol fill="none" viewBox="0 0 51 70" id="leaf" xmlns="http://www.w3.org/2000/svg"><path d="M43.233 0s-5.76 5.588-11.988 7.84C-14.881 24.524 4.572 57.037 5.207 57.144c0 0 2.586-4.505 6.08-7.074C33.46 33.771 37.965 15.01 37.965 15.01s-4.975 22.576-24.7 36.623C8.908 54.733 5.959 62.369 4.71 70c0 0 3.088-1.248 4.416-1.586.518-3.379 1.6-6.615 3.43-9.505 27.568 3.282 36.597-18.931 37.777-26.677C53.117 13.938 43.233 0 43.233 0Z" fill="#588535"/></symbol><symbol fill="inherit" viewBox="0 0 17 16" id="like" xmlns="http://www.w3.org/2000/svg"><mask id="ja" style="mask-type:alpha" maskUnits="userSpaceOnUse" x="0" y="0" width="17" height="16"><path d="M0 0h17v16H0z"/></mask><g mask="url(#ja)"><path fill-rule="evenodd" clip-rule="evenodd" d="M1.462 8.536a5.018 5.018 0 0 1 0-7.072 4.957 4.957 0 0 1 7.035 0 4.957 4.957 0 0 1 7.036 0 5.018 5.018 0 0 1 0 7.072l-3.514 3.53-.004.005-.01.01-3.508 3.526-3.502-3.52-.016-.016-.013-.014-3.504-3.521Z"/></g></symbol><symbol fill="none" viewBox="0 0 34 34" id="rain" xmlns="http://www.w3.org/2000/svg"><path d="M4.513 28.06c-3.057 2.86-2.293 5.447 0 5.447 2.292 0 3.057-2.587 0-5.447ZM10.425 23.544c-1.815 1.699-1.36 3.236 0 3.236 1.362 0 1.816-1.537 0-3.236ZM29.49 28.06c3.057 2.86 2.292 5.447 0 5.447s-3.057-2.587 0-5.447ZM17.001 27.157c3.565 3.334 2.673 6.352 0 6.352s-3.564-3.018 0-6.352ZM23.71 24.208c2.231 2.087 1.673 3.975 0 3.975-1.672 0-2.23-1.888 0-3.975ZM31.113 13.588c0 .558-.074 1.097-.212 1.61l-1.846.424L11.01 19.76H6.67A6.173 6.173 0 0 1 5.384 7.552a8.136 8.136 0 0 1 8.07-7.055 8.135 8.135 0 0 1 6.814 3.685 5.049 5.049 0 0 1 6.422 3.487 6.174 6.174 0 0 1 4.423 5.92Z" fill="#588535"/><path d="M31.115 13.59c0 .556-.074 1.096-.212 1.609l-1.846.424A6.175 6.175 0 0 0 24.7 8.799a5.049 5.049 0 0 0-6.422-3.487 8.136 8.136 0 0 0-6.814-3.685c-1.05 0-2.055.2-2.977.561a8.112 8.112 0 0 1 4.969-1.69 8.135 8.135 0 0 1 6.814 3.685 5.049 5.049 0 0 1 6.422 3.487 6.174 6.174 0 0 1 4.423 5.92Z" fill="#588535"/><path d="M33.5 17.676c0 1.203-.539 2.28-1.389 3.004a3.944 3.944 0 0 1-5.845-.82 5.9 5.9 0 0 1-4.212 1.761c-1.111 0-2.15-.307-3.038-.838a4.526 4.526 0 0 1-7.15-3.686 4.525 4.525 0 0 1 5.143-4.481 5.918 5.918 0 0 1 10.757 1.543 3.946 3.946 0 0 1 5.734 3.517Z" fill="#588535"/><path d="M33.503 17.676c0 1.203-.539 2.28-1.389 3.004a3.946 3.946 0 0 0-5.475-4.927 5.918 5.918 0 0 0-5.71-4.368c-2.182 0-3.13.843-3.917 1.23a5.919 5.919 0 0 1 10.757 1.543 3.946 3.946 0 0 1 5.734 3.517ZM.996 13.594a5.698 5.698 0 0 1 4.492-5.55.498.498 0 0 0 .39-.421 7.566 7.566 0 0 1 .849-2.611.498.498 0 0 0-.876-.474 8.555 8.555 0 0 0-.908 2.613A6.7 6.7 0 0 0 1.51 9.369 6.68 6.68 0 0 0 0 13.594c0 1.236.341 2.444.987 3.492a.498.498 0 1 0 .848-.522 5.658 5.658 0 0 1-.839-2.97Z" fill="#588535"/><path d="M6.672 18.267a.498.498 0 0 0 0-.996 3.687 3.687 0 0 1-3.684-3.682.498.498 0 0 0-.996 0c0 2.58 2.1 4.678 4.68 4.678Z" fill="#588535"/><path d="m31.609 13.739.001-.15a6.607 6.607 0 0 0-1.354-4.027 6.731 6.731 0 0 0-3.164-2.286 5.554 5.554 0 0 0-6.616-3.67A8.619 8.619 0 0 0 13.453 0c-2.316 0-4.491.904-6.124 2.545a.498.498 0 1 0 .705.703A7.593 7.593 0 0 1 13.453.996a7.628 7.628 0 0 1 6.398 3.46c.123.187.356.27.57.2A4.55 4.55 0 0 1 26.208 7.8a.498.498 0 0 0 .34.348 5.72 5.72 0 0 1 2.914 2.016 5.614 5.614 0 0 1 1.147 3.197 4.44 4.44 0 0 0-2.538.126 6.375 6.375 0 0 0-.803-1.512.498.498 0 1 0-.81.58c.379.528.656 1.111.825 1.735a.498.498 0 0 0 .706.314A3.452 3.452 0 0 1 33 17.677c0 1.9-1.547 3.447-3.448 3.447a3.445 3.445 0 0 1-2.872-1.54.498.498 0 0 0-.77-.073 5.381 5.381 0 0 1-3.857 1.613 5.413 5.413 0 0 1-2.782-.768.498.498 0 0 0-.545.022 4.001 4.001 0 0 1-2.335.746 4.032 4.032 0 0 1-4.028-4.026 4.032 4.032 0 0 1 4.577-3.988.498.498 0 0 0 .492-.233 5.389 5.389 0 0 1 4.62-2.587c.988 0 1.954.268 2.795.775a.498.498 0 1 0 .514-.853 6.405 6.405 0 0 0-3.308-.918 6.374 6.374 0 0 0-5.297 2.795 5.029 5.029 0 0 0-5.389 5.009c0 .775.177 1.509.492 2.165H6.67a5.636 5.636 0 0 1-3.309-1.064.498.498 0 0 0-.58.81 6.627 6.627 0 0 0 3.89 1.25h5.819a5.017 5.017 0 0 0 6.546 1.108 6.412 6.412 0 0 0 3.017.753 6.363 6.363 0 0 0 4.15-1.523 4.436 4.436 0 0 0 3.35 1.523 4.449 4.449 0 0 0 4.444-4.443c0-1.709-.97-3.195-2.388-3.938ZM4.85 27.69a.498.498 0 0 0-.68 0c-1.797 1.68-2.547 3.503-2.005 4.874.355.899 1.231 1.435 2.344 1.435 1.114 0 1.99-.536 2.345-1.435.541-1.371-.208-3.193-2.004-4.874Zm1.077 4.508c-.205.52-.708.805-1.418.805s-1.213-.286-1.418-.805c-.277-.702-.031-1.955 1.418-3.447 1.45 1.492 1.696 2.745 1.418 3.447ZM10.762 23.178a.498.498 0 0 0-.68 0c-1.13 1.058-1.594 2.223-1.24 3.117.242.614.833.98 1.58.98.748 0 1.339-.366 1.581-.98.353-.894-.11-2.06-1.24-3.117Zm.314 2.751c-.12.305-.461.35-.654.35-.192 0-.534-.045-.654-.35-.126-.32-.012-.928.654-1.676.667.747.78 1.356.654 1.676ZM29.827 27.69a.498.498 0 0 0-.68 0c-1.797 1.68-2.546 3.503-2.005 4.874.355.899 1.232 1.435 2.345 1.435 1.113 0 1.99-.536 2.345-1.435.54-1.371-.209-3.193-2.005-4.874Zm1.078 4.508c-.205.52-.709.805-1.418.805-.71 0-1.213-.286-1.418-.805-.277-.702-.031-1.955 1.418-3.447 1.45 1.492 1.695 2.745 1.418 3.447ZM17.341 26.783a.498.498 0 0 0-.68 0c-.69.645-1.25 1.307-1.664 1.97a.498.498 0 0 0 .845.528c.299-.478.688-.96 1.159-1.44 1.77 1.795 2.067 3.316 1.73 4.169-.248.63-.88.99-1.73.99-.62 0-1.12-.185-1.446-.536-.302-.325-.44-.783-.4-1.325a.498.498 0 0 0-.994-.074c-.06.825.168 1.544.664 2.077.512.551 1.284.855 2.176.855 1.263 0 2.256-.606 2.657-1.621.618-1.566-.248-3.657-2.317-5.593ZM24.05 23.843a.498.498 0 0 0-.68 0c-1.353 1.265-1.912 2.65-1.496 3.704.28.709.966 1.132 1.836 1.132.87 0 1.556-.423 1.836-1.132.416-1.054-.143-2.439-1.496-3.704Zm.57 3.338c-.173.437-.644.502-.91.502s-.737-.065-.91-.502c-.261-.662.272-1.568.91-2.267.638.699 1.17 1.605.91 2.267Z" fill="#588535"/></symbol><symbol fill="none" viewBox="0 0 40 40" id="san" xmlns="http://www.w3.org/2000/svg"><path d="M21.17 8.75c-.385-.04-.776-.06-1.172-.06-6.236 0-11.31 5.073-11.31 11.31 0 6.235 5.074 11.308 11.31 11.308.396 0 .787-.02 1.172-.06C26.857 30.66 31.308 25.84 31.308 20c0-5.841-4.45-10.661-10.138-11.25Zm0 20.138V11.111c4.392.575 7.794 4.341 7.794 8.889 0 4.547-3.402 8.313-7.794 8.888ZM20 6.995c.647 0 1.172-.524 1.172-1.171V1.172a1.172 1.172 0 0 0-2.344 0v4.652c0 .647.524 1.171 1.172 1.171ZM20 33.006c-.648 0-1.172.525-1.172 1.172v4.651a1.172 1.172 0 1 0 2.344 0v-4.651c0-.648-.525-1.172-1.172-1.172ZM6.995 20c0-.648-.524-1.172-1.171-1.172H1.172a1.172 1.172 0 1 0 0 2.344h4.652c.647 0 1.171-.525 1.171-1.172ZM38.828 18.828h-4.652a1.172 1.172 0 1 0 0 2.344h4.652a1.172 1.172 0 0 0 0-2.344ZM8.865 10.523a1.168 1.168 0 0 0 1.658 0c.457-.458.457-1.2 0-1.658L7.14 5.484A1.171 1.171 0 1 0 5.484 7.14l3.381 3.382ZM31.132 29.477a1.171 1.171 0 1 0-1.657 1.657l3.382 3.382a1.168 1.168 0 0 0 1.657 0c.457-.458.457-1.2 0-1.657l-3.382-3.382ZM8.865 29.477 5.484 32.86a1.172 1.172 0 0 0 1.657 1.657l3.381-3.382a1.172 1.172 0 0 0-1.657-1.657ZM30.304 10.866c.3 0 .6-.115.829-.343l3.381-3.382a1.172 1.172 0 0 0-1.657-1.657l-3.381 3.381a1.171 1.171 0 0 0 .828 2Z" fill="#588535"/></symbol><symbol fill="inherit" viewBox="0 0 21 21" id="search" xmlns="http://www.w3.org/2000/svg"><circle cx="9" cy="9" r="8" stroke="inherit" stroke-width="2"/><path stroke="inherit" stroke-width="2" stroke-linecap="round" d="M19.586 20 15 15.414"/></symbol><symbol fill="none" viewBox="0 0 26 23" id="shop" xmlns="http://www.w3.org/2000/svg"><path d="M20.413 16.441H11.01c-1.115 0-2.103-.769-2.4-1.87L5.43 3.15a1.504 1.504 0 0 0-1.44-1.12H1.5c-.276 0-.5-.23-.5-.514C1 1.23 1.224 1 1.5 1h2.49c1.115 0 2.103.769 2.401 1.87l.627 2.248H23.5c.48 0 .918.226 1.203.621.286.396.371.894.233 1.365l-2.15 7.567c-.347 1.066-1.298 1.77-2.372 1.77ZM7.304 6.147l2.267 8.145c.18.66.77 1.12 1.44 1.12h9.402c.634 0 1.216-.432 1.416-1.048l2.15-7.554a.523.523 0 0 0-.079-.455.488.488 0 0 0-.4-.208H7.303ZM12 22c-1.103 0-2-.923-2-2.059 0-1.135.897-2.059 2-2.059s2 .924 2 2.06C14 21.076 13.103 22 12 22Zm0-3.088c-.552 0-1 .462-1 1.03 0 .566.448 1.029 1 1.029s1-.463 1-1.03-.448-1.03-1-1.03ZM19 22c-1.103 0-2-.923-2-2.059 0-1.135.897-2.059 2-2.059s2 .924 2 2.06C21 21.076 20.103 22 19 22Zm0-3.088c-.552 0-1 .462-1 1.03 0 .566.448 1.029 1 1.029s1-.463 1-1.03-.448-1.03-1-1.03Z" fill="#24390B" stroke="#24390B" stroke-width=".8"/></symbol><symbol fill="inherit" viewBox="0 0 51 53" id="solid" xmlns="http://www.w3.org/2000/svg"><path d="M30.617 21.821a7.268 7.268 0 0 1 12.481-4.102 4.512 4.512 0 0 1 1.935-.443 9.035 9.035 0 0 0-16.19 4.545h1.774Z"/><path d="M36.259 21.822h2.062c.141-.224.307-.431.494-.619a1.814 1.814 0 0 0-2.557.62Z" fill="#ECF1E7"/><path d="M40.492 20.255a3.52 3.52 0 0 1 .31-.061 4.53 4.53 0 0 1 .833-1.37 5.452 5.452 0 0 0-9.182 2.997h1.856a3.636 3.636 0 0 1 6.183-1.566ZM37.773 23.716l.002-.075h-25.18l-.285 1.95a.909.909 0 0 1-.16.396l-4.072 5.701 3.03 2.712a.91.91 0 0 1 .302.678v3.342h1.843a2.976 2.976 0 0 0 2.118-.877.91.91 0 0 1 1.286 1.286 4.782 4.782 0 0 1-3.404 1.41H11.41v7.133l7.373.82a.909.909 0 0 1 .809.903v3.636h18.181v-7.273c0-.075.01-.15.028-.224l1.132-4.45a42.442 42.442 0 0 0 1.19-13.72 3.566 3.566 0 0 1-2.35-3.348Zm-15.55 5.316-.12.242a4.61 4.61 0 0 1-8.247 0l-.12-.241a.91.91 0 0 1 1.625-.814l.121.242a2.792 2.792 0 0 0 4.994 0l.121-.242a.909.909 0 0 1 1.626.813ZM46.475 19.514a2.724 2.724 0 0 0-.517-.259 2.686 2.686 0 0 0-.912-.16 2.74 2.74 0 0 0-2.667 2.153.899.899 0 0 1-.872.726h-.123c-.937 0-1.744.718-1.79 1.654a1.745 1.745 0 0 0 1.74 1.83h7.373c.937 0 1.745-.718 1.791-1.654a1.745 1.745 0 0 0-1.74-1.83h-.15a.905.905 0 0 1-.892-.707 2.702 2.702 0 0 0-.767-1.391 2.733 2.733 0 0 0-.46-.353l-.014-.01ZM5.949 9.633a.91.91 0 0 0-.796-1.01 8.358 8.358 0 0 0-4.082.537.91.91 0 0 0 .676 1.688 6.537 6.537 0 0 1 3.19-.42.907.907 0 0 0 1.012-.795ZM8.025 11.646c.266.196.517.411.75.645l.175.175a.91.91 0 1 0 1.285-1.286l-.175-.175a8.36 8.36 0 0 0-.96-.824.91.91 0 1 0-1.076 1.466ZM20.5 7.231l-.002.046v5.98l-.909.115 2.504 2.35-.644 3.373 3.008-1.655 3.01 1.654-.645-3.372 2.504-2.35-.877-.11a.86.86 0 0 0 .004-.077V7.277a.91.91 0 0 0-.045-.28 2.273 2.273 0 0 0-1.092-4.266h-.611a2.726 2.726 0 0 0-5.14 0h-.612a2.273 2.273 0 0 0-.452 4.5Zm6.134.046v5.755l-.715-.09-1.462-3.107-1.461 3.107-.68.086V7.277h4.319ZM13.227 11.367c.275 0 .548-.051.806-.15a7.81 7.81 0 0 1 1.92 5.15.91.91 0 0 0 1.819 0 9.616 9.616 0 0 0-2.438-6.424 2.271 2.271 0 1 0-2.107 1.424ZM9.468 17.55a4.597 4.597 0 0 1 3.911 2.048.91.91 0 0 0 1.513-1.009 6.41 6.41 0 0 0-5.577-2.852 2.275 2.275 0 1 0 .153 1.814ZM39.488 11.358l-.142.284a.91.91 0 1 0 1.626.813l.142-.284a7.23 7.23 0 0 1 3.212-3.225 2.233 2.233 0 1 0-.504-1.772 9.045 9.045 0 0 0-4.334 4.184ZM33.227 10.003a.909.909 0 0 0 .909-.909v-.156a5.258 5.258 0 0 1 1.155-3.302 3.183 3.183 0 1 0-1.033-1.58 7.066 7.066 0 0 0-1.94 4.882v.156a.909.909 0 0 0 .909.91Z"/></symbol><symbol fill="none" viewBox="0 0 18 18" id="star" xmlns="http://www.w3.org/2000/svg"><path d="M8.532 1.252a.5.5 0 0 1 .936 0l1.885 5.04a.5.5 0 0 0 .446.325l5.376.234a.5.5 0 0 1 .29.891l-4.212 3.35a.5.5 0 0 0-.17.525l1.438 5.185a.5.5 0 0 1-.758.55l-4.487-2.97a.5.5 0 0 0-.552 0l-4.487 2.97a.5.5 0 0 1-.758-.55l1.438-5.185a.5.5 0 0 0-.17-.525L.536 7.742a.5.5 0 0 1 .29-.89L6.2 6.616a.5.5 0 0 0 .446-.325l1.885-5.04Z" fill="gold"/></symbol><symbol fill="none" viewBox="0 0 18 16" id="twitter" xmlns="http://www.w3.org/2000/svg"><path d="M16.137 4.594a7.818 7.818 0 0 0 1.828-1.899 6.918 6.918 0 0 1-2.11.563 3.607 3.607 0 0 0 1.618-2.04 7.798 7.798 0 0 1-2.32.915 3.691 3.691 0 0 0-2.708-1.16 3.69 3.69 0 0 0-3.691 3.691c0 .281.035.563.105.844A10.71 10.71 0 0 1 1.23 1.64a3.59 3.59 0 0 0-.492 1.863c0 1.266.633 2.39 1.653 3.058-.598-.035-1.196-.175-1.688-.457v.036a3.696 3.696 0 0 0 2.953 3.62c-.281.071-.633.141-.949.141-.246 0-.457-.035-.703-.07.457 1.477 1.828 2.531 3.445 2.566A7.422 7.422 0 0 1 .88 13.98c-.317 0-.598-.035-.879-.07 1.617 1.055 3.55 1.652 5.66 1.652 6.785 0 10.477-5.59 10.477-10.476v-.492Z" fill="#22271C"/></symbol><symbol fill="none" viewBox="0 0 18 22" id="user" xmlns="http://www.w3.org/2000/svg"><circle cx="9" cy="6" r="5" stroke="#24390B" stroke-width="2"/><path d="M17 22a8 8 0 1 0-16 0" stroke="#24390B" stroke-width="2"/></symbol><symbol fill="inherit" viewBox="0 0 38 49" id="user2" xmlns="http://www.w3.org/2000/svg"><path d="M18.946 21.473c5.93 0 10.736-4.807 10.736-10.737S24.875 0 18.946 0C13.016 0 8.21 4.807 8.21 10.736c0 5.93 4.806 10.736 10.736 10.736ZM18.946 24.004C8.483 24.004 0 32.487 0 42.95a5.052 5.052 0 0 0 5.052 5.053H32.84a5.052 5.052 0 0 0 5.053-5.053c0-10.463-8.483-18.946-18.947-18.946Z"/></symbol><symbol fill="none" viewBox="0 0 20 14" id="youtube" xmlns="http://www.w3.org/2000/svg"><path d="M19.3 2.645A2.392 2.392 0 0 0 17.614.922C16.102.5 10.125.5 10.125.5S4.113.5 2.602.922A2.392 2.392 0 0 0 .914 2.645C.492 4.12.492 7.285.492 7.285s0 3.13.422 4.64c.211.845.879 1.477 1.688 1.688C4.113 14 10.125 14 10.125 14s5.977 0 7.488-.387a2.345 2.345 0 0 0 1.688-1.687c.422-1.512.422-4.64.422-4.64s0-3.165-.422-4.641ZM8.157 10.133V4.438l4.992 2.847-4.992 2.848Z" fill="#22271C"/></symbol></svg>